<?xml version="1.0" encoding="utf-8"?>
<!-- Generator: Adobe Illustrator 25.4.1, SVG Export Plug-In . SVG Version: 6.00 Build 0)  -->
<svg version="1.1" id="Layer_1" xmlns="http://www.w3.org/2000/svg" xmlns:xlink="http://www.w3.org/1999/xlink" x="0px" y="0px"
	 viewBox="0 0 917 274" style="enable-background:new 0 0 917 274;" xml:space="preserve">
<style type="text/css">
	.st0{fill:url(#SVGID_1_);}
	.st1{fill:url(#SVGID_00000114036525132774647190000013426434242146426508_);}
</style>
<linearGradient id="SVGID_1_" gradientUnits="userSpaceOnUse" x1="459" y1="259.75" x2="459" y2="19.25">
	<stop  offset="0" style="stop-color:#000000;stop-opacity:0"/>
	<stop  offset="0.1413" style="stop-color:#000000;stop-opacity:0.1413"/>
	<stop  offset="1" style="stop-color:#000000"/>
</linearGradient>
<polygon class="st0" points="917.5,142.25 859,142.25 859,236.25 831,236.25 831,100.75 793.5,100.75 793.5,181.75 767,181.75 
	767,35.25 732.5,75.25 732.5,202.75 695.5,202.75 695.5,79.75 656,40.25 656,91.25 642.5,91.25 642.5,19.25 571.5,19.25 
	571.5,243.25 555,226.75 555,90.75 500.5,90.75 500.5,208.75 491.75,200 491.75,52.75 405.5,52.75 405.5,198.25 391.5,198.25 
	377.5,212.25 377.5,88.25 312.5,88.25 312.5,230.75 282.5,230.75 282.5,59.25 208.5,59.25 208.5,223.75 193.75,209 193.75,157.75 
	158.5,157.75 158.5,216.75 134.25,241 122.5,229.25 122.5,88.25 69.5,35.25 69.5,221.75 42.5,221.75 42.5,78.75 0.5,78.75 
	0.5,259.75 917.5,259.75 "/>
<linearGradient id="SVGID_00000115487447389376644330000005105034410057091755_" gradientUnits="userSpaceOnUse" x1="459" y1="274" x2="459" y2="33.5">
	<stop  offset="0" style="stop-color:#000000;stop-opacity:0"/>
	<stop  offset="0.0338" style="stop-color:#101010;stop-opacity:0.0338"/>
	<stop  offset="0.103" style="stop-color:#2B2B2B;stop-opacity:0.103"/>
	<stop  offset="0.1827" style="stop-color:#414141;stop-opacity:0.1827"/>
	<stop  offset="0.2757" style="stop-color:#525252;stop-opacity:0.2757"/>
	<stop  offset="0.3907" style="stop-color:#5D5D5D;stop-opacity:0.3907"/>
	<stop  offset="0.552" style="stop-color:#646464;stop-opacity:0.552"/>
	<stop  offset="1" style="stop-color:#666666"/>
</linearGradient>
<polygon style="fill:url(#SVGID_00000115487447389376644330000005105034410057091755_);" points="0.5,156.5 59,156.5 59,250.5 
	87,250.5 87,115 124.5,115 124.5,196 151,196 151,49.5 185.5,89.5 185.5,217 222.5,217 222.5,94 262,54.5 262,105.5 275.5,105.5 
	275.5,33.5 346.5,33.5 346.5,257.5 363,241 363,105 417.5,105 417.5,223 426.25,214.25 426.25,67 512.5,67 512.5,212.5 526.5,212.5 
	540.5,226.5 540.5,102.5 605.5,102.5 605.5,245 635.5,245 635.5,73.5 709.5,73.5 709.5,238 724.25,223.25 724.25,172 759.5,172 
	759.5,231 783.75,255.25 795.5,243.5 795.5,102.5 848.5,49.5 848.5,236 875.5,236 875.5,93 917.5,93 917.5,274 0.5,274 "/>
</svg>
